<?xml version="1.0" encoding="UTF-8" standalone="no"?>
<!-- Created with Inkscape (http://www.inkscape.org/) -->

<svg
   width="1920"
   height="1080"
   viewBox="0 0 1920 1080"
   version="1.1"
   id="svg8"
   inkscape:version="1.1.2 (0a00cf5339, 2022-02-04)"
   sodipodi:docname="astigmatism_rays.svg"
   inkscape:export-filename="/home/muldjord/private/programming/visutest/img/redgreen_mirrored.png"
   inkscape:export-xdpi="96"
   inkscape:export-ydpi="96"
   xmlns:inkscape="http://www.inkscape.org/namespaces/inkscape"
   xmlns:sodipodi="http://sodipodi.sourceforge.net/DTD/sodipodi-0.dtd"
   xmlns="http://www.w3.org/2000/svg"
   xmlns:svg="http://www.w3.org/2000/svg"
   xmlns:rdf="http://www.w3.org/1999/02/22-rdf-syntax-ns#"
   xmlns:cc="http://creativecommons.org/ns#"
   xmlns:dc="http://purl.org/dc/elements/1.1/">
  <defs
     id="defs2">
    <rect
       x="1331.518"
       y="580.42032"
       width="85.549998"
       height="74.971279"
       id="rect6384" />
    <rect
       x="1331.5179"
       y="580.42035"
       width="145.36248"
       height="74.304309"
       id="rect6384-6" />
    <rect
       x="1331.5179"
       y="580.42035"
       width="145.36247"
       height="74.304306"
       id="rect6384-6-2" />
    <rect
       x="1331.5179"
       y="580.42035"
       width="145.36247"
       height="74.304306"
       id="rect6384-6-2-8" />
    <rect
       x="1331.5179"
       y="580.42035"
       width="145.36247"
       height="74.304306"
       id="rect6384-6-2-8-3" />
  </defs>
  <sodipodi:namedview
     id="base"
     pagecolor="#ffffff"
     bordercolor="#666666"
     borderopacity="1.0"
     inkscape:pageopacity="0"
     inkscape:pageshadow="2"
     inkscape:zoom="0.62825476"
     inkscape:cx="968.55614"
     inkscape:cy="557.8947"
     inkscape:document-units="mm"
     inkscape:current-layer="redgreen"
     showgrid="false"
     units="px"
     inkscape:window-width="2490"
     inkscape:window-height="1376"
     inkscape:window-x="70"
     inkscape:window-y="27"
     inkscape:window-maximized="1"
     inkscape:pagecheckerboard="0"
     showguides="true"
     inkscape:guide-bbox="true" />
  <metadata
     id="metadata5">
    <rdf:RDF>
      <cc:Work
         rdf:about="">
        <dc:format>image/svg+xml</dc:format>
        <dc:type
           rdf:resource="http://purl.org/dc/dcmitype/StillImage" />
      </cc:Work>
    </rdf:RDF>
  </metadata>
  <g
     inkscape:label="Layer 1"
     inkscape:groupmode="layer"
     id="redgreen"
     transform="translate(0,-11.249983)"
     style="display:inline">
    <g
       id="g29478"
       transform="translate(0.762235,-57.687292)">
      <path
         id="rect1417"
         style="stroke-width:0.531399;stroke-linecap:round;stop-color:#000000"
         inkscape:transform-center-y="-210.89602"
         d="m 959.23776,259.32104 c 1.97215,0 3.55984,1.5877 3.55984,3.55985 v 270.32074 c 0,1.97215 -1.58769,3.55984 -3.55984,3.55984 -1.97215,0 -3.55984,-1.58769 -3.55984,-3.55984 V 262.88089 c 0,-1.97215 1.58769,-3.55985 3.55984,-3.55985 z" />
      <path
         id="rect1417-06"
         style="display:inline;fill:#000000;stroke-width:0.531399;stroke-linecap:round;stop-color:#000000"
         inkscape:transform-center-y="-227.51221"
         d="m 1019.9699,264.63441 c 1.9421,0.34246 3.23,2.18174 2.8875,4.12393 l -39.99473,226.82165 c -0.34246,1.94219 -2.18173,3.23006 -4.12392,2.8876 -1.94219,-0.34246 -3.23006,-2.18173 -2.88759,-4.12392 l 39.99474,-226.82165 c 0.3425,-1.94219 2.1818,-3.23007 4.124,-2.88761 z"
         sodipodi:nodetypes="sssssss"
         inkscape:transform-center-x="-40.116524" />
      <path
         id="rect1417-06-2"
         style="display:inline;fill:#000000;stroke-width:0.531399;stroke-linecap:round;stop-color:#000000"
         inkscape:transform-center-y="-217.08963"
         d="m 1078.8566,280.41307 c 1.8532,0.67452 2.8022,2.70949 2.1276,4.56271 l -78.7743,216.4307 c -0.6745,1.85321 -2.70947,2.80213 -4.56268,2.12761 -1.85322,-0.67451 -2.80213,-2.70947 -2.12762,-4.56269 l 78.7743,-216.4307 c 0.6745,-1.85321 2.7095,-2.80214 4.5627,-2.12763 z"
         sodipodi:nodetypes="sssssss"
         inkscape:transform-center-x="-79.014158" />
      <path
         id="rect1417-7"
         style="display:inline;stroke-width:0.531399;stroke-linecap:round;stop-color:#000000"
         inkscape:transform-center-y="-182.64131"
         d="m 1134.0459,306.16073 c 1.7079,0.98608 2.289,3.15491 1.303,4.86284 L 1000.1885,545.1282 c -0.98608,1.70793 -3.15491,2.28907 -4.86284,1.30299 -1.70793,-0.98607 -2.28906,-3.1549 -1.30299,-4.86283 L 1129.183,307.46373 c 0.9861,-1.70793 3.1549,-2.28907 4.8629,-1.303 z"
         inkscape:transform-center-x="-105.448" />
      <path
         id="rect1417-5"
         style="display:inline;stroke-width:0.531399;stroke-linecap:round;stop-color:#000000"
         inkscape:transform-center-y="-105.44801"
         d="m 1262.0143,434.12916 c 0.9861,1.70793 0.4049,3.87676 -1.303,4.86283 l -234.1046,135.16037 c -1.708,0.98608 -3.8768,0.40494 -4.8629,-1.30299 -0.986,-1.70793 -0.4049,-3.87675 1.303,-4.86283 l 234.1047,-135.16037 c 1.7079,-0.98607 3.8767,-0.40494 4.8628,1.30299 z"
         inkscape:transform-center-x="-182.64131" />
      <path
         id="rect1417-3"
         style="display:inline;stroke-width:0.531399;stroke-linecap:round;stop-color:#000000"
         inkscape:transform-center-y="-5e-06"
         d="m 1308.854,608.93727 c 0,1.97216 -1.5877,3.55984 -3.5599,3.55984 h -270.3207 c -1.9721,0 -3.5598,-1.58768 -3.5598,-3.55984 0,-1.97215 1.5877,-3.55984 3.5598,-3.55984 h 270.3207 c 1.9722,0 3.5599,1.58769 3.5599,3.55984 z"
         inkscape:transform-center-x="-210.89604" />
      <path
         id="rect1417-56"
         style="display:inline;stroke-width:0.531399;stroke-linecap:round;stop-color:#000000"
         inkscape:transform-center-y="-182.64131"
         d="m 784.42964,306.16073 c 1.70793,-0.98607 3.87676,-0.40493 4.86284,1.303 l 135.16037,234.10463 c 0.98607,1.70793 0.40494,3.87676 -1.30299,4.86283 -1.70793,0.98608 -3.87676,0.40494 -4.86283,-1.30299 L 783.12666,311.02357 c -0.98608,-1.70793 -0.40495,-3.87676 1.30298,-4.86284 z"
         inkscape:transform-center-x="105.44801" />
      <path
         id="rect1417-2"
         style="display:inline;stroke-width:0.531399;stroke-linecap:round;stop-color:#000000"
         inkscape:transform-center-y="-105.44801"
         d="m 656.46122,434.12916 c 0.98607,-1.70793 3.15491,-2.28906 4.86284,-1.30299 l 234.10463,135.16037 c 1.70793,0.98608 2.28906,3.1549 1.30299,4.86283 -0.98608,1.70793 -3.1549,2.28907 -4.86283,1.30299 L 657.76422,438.99199 c -1.70793,-0.98607 -2.28908,-3.1549 -1.303,-4.86283 z"
         inkscape:transform-center-x="182.64131" />
      <path
         id="rect1417-9"
         style="display:inline;stroke-width:0.531399;stroke-linecap:round;stop-color:#000000"
         inkscape:transform-center-y="-5.0000001e-06"
         d="m 609.62153,608.93727 c 0,-1.97215 1.5877,-3.55984 3.55984,-3.55984 h 270.32074 c 1.97216,0 3.55985,1.58769 3.55985,3.55984 0,1.97216 -1.58769,3.55984 -3.55985,3.55984 H 613.18138 c -1.97215,0 -3.55985,-1.58768 -3.55985,-3.55984 z"
         inkscape:transform-center-x="210.89602" />
      <path
         id="rect1417-1"
         style="display:inline;stroke-width:0.531399;stroke-linecap:round;stop-color:#000000"
         inkscape:transform-center-y="105.44801"
         d="m 656.46122,783.74539 c -0.98608,-1.70793 -0.40493,-3.87676 1.303,-4.86283 L 891.86885,643.72219 c 1.70793,-0.98608 3.87675,-0.40494 4.86283,1.30299 0.98607,1.70793 0.40494,3.87675 -1.30299,4.86283 L 661.32406,785.04838 c -1.70793,0.98607 -3.87677,0.40494 -4.86284,-1.30299 z"
         inkscape:transform-center-x="182.64131" />
      <path
         id="rect1417-27"
         style="display:inline;stroke-width:0.531399;stroke-linecap:round;stop-color:#000000"
         inkscape:transform-center-y="182.64131"
         d="m 784.42964,911.71382 c -1.70793,-0.98608 -2.28906,-3.15491 -1.30298,-4.86284 L 918.28703,672.74635 c 0.98607,-1.70793 3.1549,-2.28907 4.86283,-1.30299 1.70793,0.98607 2.28906,3.1549 1.30299,4.86283 L 789.29248,910.41082 c -0.98608,1.70793 -3.15491,2.28907 -4.86284,1.303 z"
         inkscape:transform-center-x="105.44801" />
      <path
         id="rect1417-0"
         style="display:inline;stroke-width:0.531399;stroke-linecap:round;stop-color:#000000"
         inkscape:transform-center-y="210.89602"
         d="m 959.23776,958.55351 c -1.97215,0 -3.55984,-1.5877 -3.55984,-3.55985 V 684.67292 c 0,-1.97215 1.58769,-3.55984 3.55984,-3.55984 1.97215,0 3.55984,1.58769 3.55984,3.55984 v 270.32074 c 0,1.97215 -1.58769,3.55985 -3.55984,3.55985 z" />
      <path
         id="rect1417-93"
         style="display:inline;stroke-width:0.531399;stroke-linecap:round;stop-color:#000000"
         inkscape:transform-center-y="182.64131"
         d="m 1134.0459,911.71382 c -1.708,0.98607 -3.8768,0.40493 -4.8629,-1.303 L 994.02267,676.30619 c -0.98607,-1.70793 -0.40494,-3.87676 1.30299,-4.86283 1.70793,-0.98608 3.87676,-0.40494 4.86284,1.30299 l 135.1604,234.10463 c 0.986,1.70793 0.4049,3.87676 -1.303,4.86284 z"
         inkscape:transform-center-x="-105.448" />
      <path
         id="rect1417-6"
         style="display:inline;stroke-width:0.531399;stroke-linecap:round;stop-color:#000000"
         inkscape:transform-center-y="105.44801"
         d="m 1262.0143,783.74539 c -0.9861,1.70793 -3.1549,2.28906 -4.8628,1.30299 L 1023.0468,649.88801 c -1.7079,-0.98608 -2.289,-3.1549 -1.303,-4.86283 0.9861,-1.70793 3.1549,-2.28907 4.8629,-1.30299 l 234.1046,135.16037 c 1.7079,0.98607 2.2891,3.1549 1.303,4.86283 z"
         inkscape:transform-center-x="-182.64131" />
      <path
         id="rect1417-06-6"
         style="display:inline;fill:#000000;stroke-width:0.531399;stroke-linecap:round;stop-color:#000000"
         inkscape:transform-center-y="-176.97309"
         d="m 1184.0477,341.14517 c 1.5108,1.26767 1.7064,3.50447 0.4388,5.01522 l -148.0474,176.43592 c -1.2676,1.51076 -3.5044,1.70645 -5.0152,0.43878 -1.5107,-1.26768 -1.7064,-3.50446 -0.4387,-5.01522 l 148.0473,-176.43592 c 1.2676,-1.51076 3.5044,-1.70646 5.0152,-0.43878 z"
         sodipodi:nodetypes="sssssss"
         inkscape:transform-center-x="-148.49807" />
      <path
         id="rect1417-06-1"
         style="display:inline;fill:#000000;stroke-width:0.531399;stroke-linecap:round;stop-color:#000000"
         inkscape:transform-center-y="-148.49805"
         d="m 1227.1558,384.25328 c 1.2677,1.51075 1.072,3.74755 -0.4388,5.01522 l -176.4359,148.04732 c -1.5108,1.26767 -3.7475,1.07198 -5.0152,-0.43878 -1.2677,-1.51075 -1.072,-3.74754 0.4388,-5.01521 l 176.4359,-148.04732 c 1.5107,-1.26767 3.7475,-1.07199 5.0152,0.43877 z"
         sodipodi:nodetypes="sssssss"
         inkscape:transform-center-x="-176.97309" />
      <path
         id="rect1417-06-8"
         style="display:inline;fill:#000000;stroke-width:0.531399;stroke-linecap:round;stop-color:#000000"
         inkscape:transform-center-y="-79.014163"
         d="m 1287.8879,489.44435 c 0.6745,1.85321 -0.2744,3.88818 -2.1276,4.56269 l -216.4307,78.77433 c -1.8532,0.67452 -3.8882,-0.2744 -4.5627,-2.12761 -0.6745,-1.85322 0.2744,-3.88818 2.1276,-4.5627 l 216.4307,-78.77433 c 1.8532,-0.67451 3.8882,0.2744 4.5627,2.12762 z"
         sodipodi:nodetypes="sssssss"
         inkscape:transform-center-x="-217.08964" />
      <path
         id="rect1417-06-7"
         style="display:inline;fill:#000000;stroke-width:0.531399;stroke-linecap:round;stop-color:#000000"
         inkscape:transform-center-y="-40.11654"
         d="m 1303.6666,548.33112 c 0.3424,1.94219 -0.9455,3.78146 -2.8876,4.12392 l -226.8217,39.99478 c -1.9422,0.34246 -3.7815,-0.94541 -4.1239,-2.8876 -0.3425,-1.94219 0.9454,-3.78146 2.8876,-4.12392 l 226.8216,-39.99477 c 1.9422,-0.34246 3.7815,0.94541 4.124,2.88759 z"
         sodipodi:nodetypes="sssssss"
         inkscape:transform-center-x="-227.51223" />
      <path
         id="rect1417-06-9"
         style="display:inline;fill:#000000;stroke-width:0.531399;stroke-linecap:round;stop-color:#000000"
         inkscape:transform-center-y="40.11654"
         d="m 1303.6666,669.79531 c -0.3425,1.94218 -2.1818,3.23005 -4.124,2.88759 L 1072.721,632.68813 c -1.9422,-0.34246 -3.2301,-2.18173 -2.8876,-4.12392 0.3424,-1.94219 2.1817,-3.23006 4.1239,-2.8876 l 226.8217,39.99478 c 1.9421,0.34246 3.23,2.18173 2.8876,4.12392 z"
         sodipodi:nodetypes="sssssss"
         inkscape:transform-center-x="-227.51223" />
      <path
         id="rect1417-06-20"
         style="display:inline;fill:#000000;stroke-width:0.531399;stroke-linecap:round;stop-color:#000000"
         inkscape:transform-center-y="79.014163"
         d="m 1287.8879,728.68208 c -0.6745,1.85322 -2.7095,2.80213 -4.5627,2.12762 l -216.4307,-78.77433 c -1.8532,-0.67452 -2.8021,-2.70948 -2.1276,-4.5627 0.6745,-1.85321 2.7095,-2.80213 4.5627,-2.12761 l 216.4307,78.77433 c 1.8532,0.67451 2.8021,2.70948 2.1276,4.56269 z"
         sodipodi:nodetypes="sssssss"
         inkscape:transform-center-x="-217.08964" />
      <path
         id="rect1417-06-23"
         style="display:inline;fill:#000000;stroke-width:0.531399;stroke-linecap:round;stop-color:#000000"
         inkscape:transform-center-y="148.49805"
         d="m 1227.1558,833.87315 c -1.2677,1.51076 -3.5045,1.70644 -5.0152,0.43877 L 1045.7047,686.2646 c -1.5108,-1.26767 -1.7065,-3.50446 -0.4388,-5.01521 1.2677,-1.51076 3.5044,-1.70645 5.0152,-0.43878 l 176.4359,148.04732 c 1.5108,1.26767 1.7065,3.50447 0.4388,5.01522 z"
         sodipodi:nodetypes="sssssss"
         inkscape:transform-center-x="-176.97309" />
      <path
         id="rect1417-06-75"
         style="display:inline;fill:#000000;stroke-width:0.531399;stroke-linecap:round;stop-color:#000000"
         inkscape:transform-center-y="176.97309"
         d="m 1184.0477,876.98126 c -1.5108,1.26768 -3.7476,1.07198 -5.0152,-0.43878 L 1030.9852,700.10656 c -1.2677,-1.51076 -1.072,-3.74754 0.4387,-5.01522 1.5108,-1.26767 3.7476,-1.07198 5.0152,0.43878 l 148.0474,176.43592 c 1.2676,1.51075 1.072,3.74755 -0.4388,5.01522 z"
         sodipodi:nodetypes="sssssss"
         inkscape:transform-center-x="-148.49807" />
      <path
         id="rect1417-06-92"
         style="display:inline;fill:#000000;stroke-width:0.531399;stroke-linecap:round;stop-color:#000000"
         inkscape:transform-center-y="217.08963"
         d="m 1078.8566,937.71336 c -1.8532,0.67451 -3.8882,-0.27442 -4.5627,-2.12763 l -78.7743,-216.4307 c -0.67451,-1.85322 0.2744,-3.88818 2.12762,-4.56269 1.85321,-0.67452 3.88818,0.2744 4.56268,2.12761 l 78.7743,216.4307 c 0.6746,1.85322 -0.2744,3.88819 -2.1276,4.56271 z"
         sodipodi:nodetypes="sssssss"
         inkscape:transform-center-x="-79.014158" />
      <path
         id="rect1417-06-28"
         style="display:inline;fill:#000000;stroke-width:0.531399;stroke-linecap:round;stop-color:#000000"
         inkscape:transform-center-y="227.51221"
         d="m 1019.9699,953.49202 c -1.9422,0.34246 -3.7815,-0.94542 -4.124,-2.88761 L 975.85116,723.78276 c -0.34247,-1.94219 0.9454,-3.78146 2.88759,-4.12392 1.94219,-0.34246 3.78146,0.94541 4.12392,2.8876 l 39.99473,226.82165 c 0.3425,1.94219 -0.9454,3.78147 -2.8875,4.12393 z"
         sodipodi:nodetypes="sssssss"
         inkscape:transform-center-x="-40.116524" />
      <path
         id="rect1417-06-97"
         style="display:inline;fill:#000000;stroke-width:0.531399;stroke-linecap:round;stop-color:#000000"
         inkscape:transform-center-y="227.51221"
         d="m 898.50567,953.49202 c -1.94219,-0.34246 -3.23006,-2.18174 -2.8876,-4.12393 l 39.99478,-226.82165 c 0.34246,-1.94219 2.18173,-3.23006 4.12392,-2.8876 1.94219,0.34246 3.23006,2.18173 2.88759,4.12392 l -39.99477,226.82165 c -0.34246,1.94219 -2.18173,3.23007 -4.12392,2.88761 z"
         sodipodi:nodetypes="sssssss"
         inkscape:transform-center-x="40.116544" />
      <path
         id="rect1417-06-3"
         style="display:inline;fill:#000000;stroke-width:0.531399;stroke-linecap:round;stop-color:#000000"
         inkscape:transform-center-y="-227.51221"
         d="m 898.50567,264.63441 c 1.94219,-0.34246 3.78146,0.94542 4.12392,2.88761 l 39.99477,226.82165 c 0.34247,1.94219 -0.9454,3.78146 -2.88759,4.12392 -1.94219,0.34246 -3.78146,-0.94541 -4.12392,-2.8876 L 895.61807,268.75834 c -0.34246,-1.94219 0.94541,-3.78147 2.8876,-4.12393 z"
         sodipodi:nodetypes="sssssss"
         inkscape:transform-center-x="40.116544" />
      <path
         id="rect1417-06-61"
         style="display:inline;fill:#000000;stroke-width:0.531399;stroke-linecap:round;stop-color:#000000"
         inkscape:transform-center-y="-217.08963"
         d="m 839.61889,280.41307 c 1.85322,-0.67451 3.88818,0.27442 4.5627,2.12763 l 78.77433,216.4307 c 0.67451,1.85322 -0.2744,3.88818 -2.12762,4.56269 -1.85321,0.67452 -3.88818,-0.2744 -4.56269,-2.12761 l -78.77433,-216.4307 c -0.67452,-1.85322 0.2744,-3.88819 2.12761,-4.56271 z"
         sodipodi:nodetypes="sssssss"
         inkscape:transform-center-x="79.014162" />
      <path
         id="rect1417-06-29"
         style="display:inline;fill:#000000;stroke-width:0.531399;stroke-linecap:round;stop-color:#000000"
         inkscape:transform-center-y="-176.97309"
         d="m 734.42782,341.14517 c 1.51076,-1.26768 3.74755,-1.07198 5.01523,0.43878 l 148.04731,176.43592 c 1.26768,1.51076 1.07198,3.74754 -0.43877,5.01522 -1.51075,1.26767 -3.74754,1.07198 -5.01522,-0.43878 L 733.98906,346.16039 c -1.26768,-1.51075 -1.07199,-3.74755 0.43876,-5.01522 z"
         sodipodi:nodetypes="sssssss"
         inkscape:transform-center-x="148.49805" />
      <path
         id="rect1417-06-31"
         style="display:inline;fill:#000000;stroke-width:0.531399;stroke-linecap:round;stop-color:#000000"
         inkscape:transform-center-y="-148.49805"
         d="m 691.31971,384.25328 c 1.26767,-1.51076 3.50447,-1.70644 5.01522,-0.43877 l 176.43593,148.04732 c 1.51075,1.26767 1.70645,3.50446 0.43877,5.01521 -1.26767,1.51076 -3.50446,1.70645 -5.01521,0.43878 L 691.75849,389.2685 c -1.51075,-1.26767 -1.70645,-3.50447 -0.43878,-5.01522 z"
         sodipodi:nodetypes="sssssss"
         inkscape:transform-center-x="176.97309" />
      <path
         id="rect1417-06-94"
         style="display:inline;fill:#000000;stroke-width:0.531399;stroke-linecap:round;stop-color:#000000"
         inkscape:transform-center-y="-79.014163"
         d="m 630.58762,489.44435 c 0.67451,-1.85322 2.70949,-2.80213 4.5627,-2.12762 l 216.4307,78.77433 c 1.85322,0.67452 2.80213,2.70948 2.12762,4.5627 -0.67452,1.85321 -2.70948,2.80213 -4.56269,2.12761 l -216.4307,-78.77433 c -1.85322,-0.67451 -2.80215,-2.70948 -2.12763,-4.56269 z"
         sodipodi:nodetypes="sssssss"
         inkscape:transform-center-x="217.08963" />
      <path
         id="rect1417-06-78"
         style="display:inline;fill:#000000;stroke-width:0.531399;stroke-linecap:round;stop-color:#000000"
         inkscape:transform-center-y="-40.11654"
         d="m 614.80895,548.33112 c 0.34246,-1.94218 2.18174,-3.23005 4.12393,-2.88759 l 226.82165,39.99477 c 1.94219,0.34246 3.23006,2.18173 2.8876,4.12392 -0.34246,1.94219 -2.18173,3.23006 -4.12392,2.8876 L 617.69656,552.45504 c -1.94219,-0.34246 -3.23007,-2.18173 -2.88761,-4.12392 z"
         sodipodi:nodetypes="sssssss"
         inkscape:transform-center-x="227.51222" />
      <path
         id="rect1417-06-4"
         style="display:inline;fill:#000000;stroke-width:0.531399;stroke-linecap:round;stop-color:#000000"
         inkscape:transform-center-y="40.11654"
         d="m 614.80895,669.79531 c -0.34246,-1.94219 0.94542,-3.78146 2.88761,-4.12392 l 226.82165,-39.99478 c 1.94219,-0.34246 3.78146,0.94541 4.12392,2.8876 0.34246,1.94219 -0.94541,3.78146 -2.8876,4.12392 L 618.93288,672.6829 c -1.94219,0.34246 -3.78147,-0.94541 -4.12393,-2.88759 z"
         sodipodi:nodetypes="sssssss"
         inkscape:transform-center-x="227.51222" />
      <path
         id="rect1417-06-5"
         style="display:inline;fill:#000000;stroke-width:0.531399;stroke-linecap:round;stop-color:#000000"
         inkscape:transform-center-y="79.014163"
         d="m 630.58762,728.68208 c -0.67452,-1.85321 0.27441,-3.88818 2.12763,-4.56269 l 216.4307,-78.77433 c 1.85321,-0.67452 3.88817,0.2744 4.56269,2.12761 0.67451,1.85322 -0.2744,3.88818 -2.12762,4.5627 l -216.4307,78.77433 c -1.85321,0.67451 -3.88819,-0.2744 -4.5627,-2.12762 z"
         sodipodi:nodetypes="sssssss"
         inkscape:transform-center-x="217.08963" />
      <path
         id="rect1417-06-0"
         style="display:inline;fill:#000000;stroke-width:0.531399;stroke-linecap:round;stop-color:#000000"
         inkscape:transform-center-y="148.49805"
         d="m 691.31971,833.87315 c -1.26767,-1.51075 -1.07197,-3.74755 0.43878,-5.01522 L 868.19442,680.81061 c 1.51075,-1.26767 3.74754,-1.07198 5.01521,0.43878 1.26768,1.51075 1.07198,3.74754 -0.43877,5.01521 L 696.33493,834.31192 c -1.51075,1.26767 -3.74755,1.07199 -5.01522,-0.43877 z"
         sodipodi:nodetypes="sssssss"
         inkscape:transform-center-x="176.97309" />
      <path
         id="rect1417-06-36"
         style="display:inline;fill:#000000;stroke-width:0.531399;stroke-linecap:round;stop-color:#000000"
         inkscape:transform-center-y="176.97309"
         d="m 734.42782,876.98126 c -1.51075,-1.26767 -1.70644,-3.50447 -0.43876,-5.01522 L 882.03637,695.53012 c 1.26768,-1.51076 3.50447,-1.70645 5.01522,-0.43878 1.51075,1.26768 1.70645,3.50446 0.43877,5.01522 L 739.44305,876.54248 c -1.26768,1.51076 -3.50447,1.70646 -5.01523,0.43878 z"
         sodipodi:nodetypes="sssssss"
         inkscape:transform-center-x="148.49805" />
      <path
         id="rect1417-06-10"
         style="display:inline;fill:#000000;stroke-width:0.531399;stroke-linecap:round;stop-color:#000000"
         inkscape:transform-center-y="217.08963"
         d="m 839.61889,937.71336 c -1.85321,-0.67452 -2.80213,-2.70949 -2.12761,-4.56271 l 78.77433,-216.4307 c 0.67451,-1.85321 2.70948,-2.80213 4.56269,-2.12761 1.85322,0.67451 2.80213,2.70947 2.12762,4.56269 l -78.77433,216.4307 c -0.67452,1.85321 -2.70948,2.80214 -4.5627,2.12763 z"
         sodipodi:nodetypes="sssssss"
         inkscape:transform-center-x="79.014162" />
    </g>
    <g
       aria-label="0°"
       transform="translate(0,-56.761068)"
       id="text6382"
       style="font-size:53.3333px;line-height:1.25;white-space:pre;shape-inside:url(#rect6384)">
      <path
         d="m 1356.0488,608.12824 q 0,-7.29166 -1.3802,-10.26041 -1.3542,-2.99479 -4.5833,-2.99479 -3.2292,0 -4.6094,2.99479 -1.3802,2.96875 -1.3802,10.26041 0,7.36979 1.3802,10.39062 1.3802,3.02083 4.6094,3.02083 3.2031,0 4.5833,-3.02083 1.3802,-3.02083 1.3802,-10.39062 z m 10.026,0.0781 q 0,9.66146 -4.1666,14.92187 -4.1667,5.23437 -11.8229,5.23437 -7.6823,0 -11.849,-5.23437 -4.1666,-5.26041 -4.1666,-14.92187 0,-9.68749 4.1666,-14.92186 4.1667,-5.26042 11.849,-5.26042 7.6562,0 11.8229,5.26042 4.1666,5.23437 4.1666,14.92186 z"
         style="font-weight:bold;font-family:'DejaVu Sans';-inkscape-font-specification:'DejaVu Sans Bold'"
         id="path61148" />
      <path
         d="m 1381.9603,591.87825 q -1.875,0 -3.1771,1.30208 -1.3021,1.30208 -1.3021,3.17708 0,1.875 1.276,3.15104 1.3021,1.27604 3.2032,1.27604 1.875,0 3.177,-1.27604 1.3021,-1.30208 1.3021,-3.15104 0,-1.875 -1.3281,-3.17708 -1.3021,-1.30208 -3.151,-1.30208 z m 0,-4.21875 q 1.7187,0 3.3072,0.67708 1.5886,0.65105 2.8386,1.875 1.2239,1.25 1.8489,2.8125 0.6511,1.5625 0.6511,3.33333 0,1.74479 -0.6511,3.33333 -0.625,1.5625 -1.7968,2.73438 -1.25,1.25 -2.8646,1.92708 -1.6146,0.65104 -3.3854,0.65104 -3.6719,0 -6.1719,-2.47396 -2.474,-2.49999 -2.474,-6.17187 0,-3.67187 2.5,-6.17187 2.5261,-2.52604 6.198,-2.52604 z"
         style="font-weight:bold;font-family:'DejaVu Sans';-inkscape-font-specification:'DejaVu Sans Bold'"
         id="path61150" />
    </g>
    <g
       aria-label="180°"
       transform="translate(-875.99996,-56.761068)"
       id="text6382-3"
       style="font-size:53.3333px;line-height:1.25;white-space:pre;shape-inside:url(#rect6384-6);display:inline">
      <path
         d="m 1337.7676,620.68031 h 8.8541 v -25.13019 l -9.0885,1.875 v -6.82291 l 9.0365,-1.875 h 9.5312 v 31.9531 h 8.8542 v 6.92708 h -27.1875 z"
         style="font-weight:bold;font-family:'DejaVu Sans';-inkscape-font-specification:'DejaVu Sans Bold'"
         id="path61096" />
      <path
         d="m 1387.1946,610.21157 q -2.8125,0 -4.3229,1.53646 -1.5104,1.53646 -1.5104,4.40104 0,2.86458 1.5104,4.40104 1.5104,1.51041 4.3229,1.51041 2.7865,0 4.2709,-1.51041 1.4843,-1.53646 1.4843,-4.40104 0,-2.89063 -1.4843,-4.40104 -1.4844,-1.53646 -4.2709,-1.53646 z m -7.3177,-3.30729 q -3.5416,-1.06771 -5.3385,-3.28125 -1.7969,-2.21354 -1.7969,-5.52083 0,-4.92187 3.6719,-7.49999 3.6719,-2.57813 10.7812,-2.57813 7.0573,0 10.7292,2.57813 3.6719,2.55208 3.6719,7.49999 0,3.30729 -1.823,5.52083 -1.7968,2.21354 -5.3385,3.28125 3.9583,1.09375 5.9635,3.56771 2.0313,2.44791 2.0313,6.19791 0,5.78125 -3.8542,8.75 -3.8281,2.9427 -11.3802,2.9427 -7.5781,0 -11.4583,-2.9427 -3.8542,-2.96875 -3.8542,-8.75 0,-3.75 2.0052,-6.19791 2.0313,-2.47396 5.9896,-3.56771 z m 2.3438,-7.78645 q 0,2.3177 1.276,3.5677 1.3021,1.25 3.6979,1.25 2.3438,0 3.6198,-1.25 1.2761,-1.25 1.2761,-3.5677 0,-2.31771 -1.2761,-3.54167 -1.276,-1.25 -3.6198,-1.25 -2.3958,0 -3.6979,1.25 -1.276,1.25 -1.276,3.54167 z"
         style="font-weight:bold;font-family:'DejaVu Sans';-inkscape-font-specification:'DejaVu Sans Bold'"
         id="path61098" />
      <path
         d="m 1430.2675,608.12824 q 0,-7.29166 -1.3802,-10.26041 -1.3542,-2.99479 -4.5833,-2.99479 -3.2292,0 -4.6094,2.99479 -1.3802,2.96875 -1.3802,10.26041 0,7.36979 1.3802,10.39062 1.3802,3.02083 4.6094,3.02083 3.2031,0 4.5833,-3.02083 1.3802,-3.02083 1.3802,-10.39062 z m 10.0261,0.0781 q 0,9.66146 -4.1667,14.92187 -4.1667,5.23437 -11.8229,5.23437 -7.6823,0 -11.849,-5.23437 -4.1666,-5.26041 -4.1666,-14.92187 0,-9.68749 4.1666,-14.92186 4.1667,-5.26042 11.849,-5.26042 7.6562,0 11.8229,5.26042 4.1667,5.23437 4.1667,14.92186 z"
         style="font-weight:bold;font-family:'DejaVu Sans';-inkscape-font-specification:'DejaVu Sans Bold'"
         id="path61100" />
      <path
         d="m 1456.179,591.87825 q -1.875,0 -3.1771,1.30208 -1.3021,1.30208 -1.3021,3.17708 0,1.875 1.276,3.15104 1.3021,1.27604 3.2032,1.27604 1.875,0 3.177,-1.27604 1.3021,-1.30208 1.3021,-3.15104 0,-1.875 -1.3281,-3.17708 -1.3021,-1.30208 -3.151,-1.30208 z m 0,-4.21875 q 1.7187,0 3.3072,0.67708 1.5886,0.65105 2.8386,1.875 1.2239,1.25 1.8489,2.8125 0.6511,1.5625 0.6511,3.33333 0,1.74479 -0.6511,3.33333 -0.625,1.5625 -1.7968,2.73438 -1.25,1.25 -2.8646,1.92708 -1.6146,0.65104 -3.3854,0.65104 -3.6719,0 -6.1719,-2.47396 -2.474,-2.49999 -2.474,-6.17187 0,-3.67187 2.5,-6.17187 2.5261,-2.52604 6.198,-2.52604 z"
         style="font-weight:bold;font-family:'DejaVu Sans';-inkscape-font-specification:'DejaVu Sans Bold'"
         id="path61102" />
    </g>
    <g
       aria-label="135°"
       transform="translate(-757.33812,-325.7881)"
       id="text6382-3-0"
       style="font-size:53.3333px;line-height:1.25;white-space:pre;shape-inside:url(#rect6384-6-2);display:inline">
      <path
         d="m 1337.7676,620.68031 h 8.8541 v -25.13019 l -9.0885,1.875 v -6.82291 l 9.0365,-1.875 h 9.5312 v 31.9531 h 8.8542 v 6.92708 h -27.1875 z"
         style="font-weight:bold;font-family:'DejaVu Sans';-inkscape-font-specification:'DejaVu Sans Bold'"
         id="path61069" />
      <path
         d="m 1393.4707,606.64386 q 3.9323,1.01563 5.9635,3.54167 2.0573,2.5 2.0573,6.3802 0,5.78125 -4.4271,8.80208 -4.4271,2.99479 -12.9166,2.99479 -2.9948,0 -6.0157,-0.49479 -2.9948,-0.46875 -5.9375,-1.43229 v -7.73437 q 2.8125,1.40625 5.5729,2.13541 2.7865,0.70313 5.4688,0.70313 3.9844,0 6.0937,-1.38021 2.1355,-1.38021 2.1355,-3.95833 0,-2.65625 -2.1875,-4.01041 -2.1615,-1.38021 -6.4063,-1.38021 h -4.0104 v -6.45833 h 4.2187 q 3.7761,0 5.625,-1.17188 1.849,-1.19791 1.849,-3.61978 0,-2.23959 -1.7969,-3.46354 -1.7968,-1.22396 -5.0781,-1.22396 -2.4219,0 -4.8958,0.54687 -2.474,0.54688 -4.9219,1.61459 v -7.34375 q 2.9688,-0.83333 5.8854,-1.25 2.9167,-0.41667 5.7292,-0.41667 7.5781,0 11.3281,2.5 3.776,2.47396 3.776,7.47396 0,3.41145 -1.7968,5.59895 -1.7969,2.16146 -5.3125,3.04687 z"
         style="font-weight:bold;font-family:'DejaVu Sans';-inkscape-font-specification:'DejaVu Sans Bold'"
         id="path61071" />
      <path
         d="m 1411.3873,588.72721 h 24.9219 v 7.36979 h -16.9271 v 6.01562 q 1.1458,-0.3125 2.2917,-0.46875 1.1718,-0.18229 2.4218,-0.18229 7.1094,0 11.0677,3.5677 3.9584,3.54167 3.9584,9.89583 0,6.30208 -4.3229,9.86979 -4.2969,3.5677 -11.9532,3.5677 -3.3072,0 -6.5624,-0.65104 -3.2292,-0.625 -6.4323,-1.92708 v -7.89062 q 3.177,1.82291 6.0156,2.73437 2.8646,0.91146 5.3906,0.91146 3.6458,0 5.7292,-1.77083 2.1093,-1.79688 2.1093,-4.84375 0,-3.07292 -2.1093,-4.84375 -2.0834,-1.77083 -5.7292,-1.77083 -2.1615,0 -4.6094,0.57292 -2.4479,0.54687 -5.2604,1.71875 z"
         style="font-weight:bold;font-family:'DejaVu Sans';-inkscape-font-specification:'DejaVu Sans Bold'"
         id="path61073" />
      <path
         d="m 1456.179,591.87825 q -1.875,0 -3.1771,1.30208 -1.3021,1.30208 -1.3021,3.17708 0,1.875 1.276,3.15104 1.3021,1.27604 3.2032,1.27604 1.875,0 3.177,-1.27604 1.3021,-1.30208 1.3021,-3.15104 0,-1.875 -1.3281,-3.17708 -1.3021,-1.30208 -3.151,-1.30208 z m 0,-4.21875 q 1.7187,0 3.3072,0.67708 1.5886,0.65105 2.8386,1.875 1.2239,1.25 1.8489,2.8125 0.6511,1.5625 0.6511,3.33333 0,1.74479 -0.6511,3.33333 -0.625,1.5625 -1.7968,2.73438 -1.25,1.25 -2.8646,1.92708 -1.6146,0.65104 -3.3854,0.65104 -3.6719,0 -6.1719,-2.47396 -2.474,-2.49999 -2.474,-6.17187 0,-3.67187 2.5,-6.17187 2.5261,-2.52604 6.198,-2.52604 z"
         style="font-weight:bold;font-family:'DejaVu Sans';-inkscape-font-specification:'DejaVu Sans Bold'"
         id="path61075" />
    </g>
    <g
       aria-label="45°"
       transform="translate(-113.33812,-325.7881)"
       id="text6382-3-0-4"
       style="font-size:53.3333px;line-height:1.25;white-space:pre;shape-inside:url(#rect6384-6-2-8);display:inline">
      <path
         d="m 1351.153,596.98241 -10.9896,16.27603 h 10.9896 z m -1.6667,-8.2552 h 11.1458 v 24.53123 h 5.5469 v 7.26562 h -5.5469 v 7.08333 h -9.4791 v -7.08333 h -17.2396 v -8.59374 z"
         style="font-weight:bold;font-family:'DejaVu Sans';-inkscape-font-specification:'DejaVu Sans Bold'"
         id="path61123" />
      <path
         d="m 1374.278,588.72721 h 24.9218 v 7.36979 h -16.927 v 6.01562 q 1.1458,-0.3125 2.2916,-0.46875 1.1719,-0.18229 2.4219,-0.18229 7.1094,0 11.0677,3.5677 3.9583,3.54167 3.9583,9.89583 0,6.30208 -4.3229,9.86979 -4.2969,3.5677 -11.9531,3.5677 -3.3073,0 -6.5625,-0.65104 -3.2292,-0.625 -6.4323,-1.92708 v -7.89062 q 3.1771,1.82291 6.0156,2.73437 2.8646,0.91146 5.3907,0.91146 3.6458,0 5.7291,-1.77083 2.1094,-1.79688 2.1094,-4.84375 0,-3.07292 -2.1094,-4.84375 -2.0833,-1.77083 -5.7291,-1.77083 -2.1615,0 -4.6094,0.57292 -2.4479,0.54687 -5.2604,1.71875 z"
         style="font-weight:bold;font-family:'DejaVu Sans';-inkscape-font-specification:'DejaVu Sans Bold'"
         id="path61125" />
      <path
         d="m 1419.0696,591.87825 q -1.875,0 -3.1771,1.30208 -1.3021,1.30208 -1.3021,3.17708 0,1.875 1.2761,3.15104 1.3021,1.27604 3.2031,1.27604 1.875,0 3.1771,-1.27604 1.3021,-1.30208 1.3021,-3.15104 0,-1.875 -1.3282,-3.17708 -1.302,-1.30208 -3.151,-1.30208 z m 0,-4.21875 q 1.7188,0 3.3073,0.67708 1.5885,0.65105 2.8385,1.875 1.224,1.25 1.849,2.8125 0.651,1.5625 0.651,3.33333 0,1.74479 -0.651,3.33333 -0.625,1.5625 -1.7969,2.73438 -1.25,1.25 -2.8646,1.92708 -1.6145,0.65104 -3.3854,0.65104 -3.6718,0 -6.1718,-2.47396 -2.474,-2.49999 -2.474,-6.17187 0,-3.67187 2.5,-6.17187 2.526,-2.52604 6.1979,-2.52604 z"
         style="font-weight:bold;font-family:'DejaVu Sans';-inkscape-font-specification:'DejaVu Sans Bold'"
         id="path61127" />
    </g>
    <g
       aria-label="90°"
       transform="translate(-420.99671,-451.7881)"
       id="text6382-3-0-4-1"
       style="font-size:53.3333px;line-height:1.25;white-space:pre;shape-inside:url(#rect6384-6-2-8-3);display:inline">
      <path
         d="m 1336.8561,626.74802 v -7.1875 q 2.3958,1.11979 4.5833,1.69271 2.1875,0.54688 4.323,0.54688 4.4791,0 6.9791,-2.47396 2.5,-2.5 2.9427,-7.39583 -1.7708,1.30208 -3.776,1.95312 -2.0052,0.65104 -4.349,0.65104 -5.9635,0 -9.6354,-3.46353 -3.6458,-3.48959 -3.6458,-9.16667 0,-6.27603 4.0625,-10.05207 4.0885,-3.77604 10.9375,-3.77604 7.6041,0 11.7708,5.1302 4.1667,5.13021 4.1667,14.5052 0,9.63541 -4.8698,15.15624 -4.8698,5.49479 -13.3594,5.49479 -2.7344,0 -5.2344,-0.41666 -2.5,-0.39063 -4.8958,-1.19792 z m 12.3698,-18.72395 q 2.6302,0 3.9583,-1.69271 1.3282,-1.71874 1.3282,-5.1302 0,-3.38542 -1.3282,-5.10416 -1.3281,-1.71875 -3.9583,-1.71875 -2.6302,0 -3.9583,1.71875 -1.3282,1.71874 -1.3282,5.10416 0,3.41146 1.3282,5.1302 1.3281,1.69271 3.9583,1.69271 z"
         style="font-weight:bold;font-family:'DejaVu Sans';-inkscape-font-specification:'DejaVu Sans Bold'"
         id="path60945" />
      <path
         d="m 1393.1582,608.12824 q 0,-7.29166 -1.3802,-10.26041 -1.3542,-2.99479 -4.5834,-2.99479 -3.2291,0 -4.6093,2.99479 -1.3803,2.96875 -1.3803,10.26041 0,7.36979 1.3803,10.39062 1.3802,3.02083 4.6093,3.02083 3.2032,0 4.5834,-3.02083 1.3802,-3.02083 1.3802,-10.39062 z m 10.026,0.0781 q 0,9.66146 -4.1667,14.92187 -4.1666,5.23437 -11.8229,5.23437 -7.6823,0 -11.8489,-5.23437 -4.1667,-5.26041 -4.1667,-14.92187 0,-9.68749 4.1667,-14.92186 4.1666,-5.26042 11.8489,-5.26042 7.6563,0 11.8229,5.26042 4.1667,5.23437 4.1667,14.92186 z"
         style="font-weight:bold;font-family:'DejaVu Sans';-inkscape-font-specification:'DejaVu Sans Bold'"
         id="path60947" />
      <path
         d="m 1419.0696,591.87825 q -1.875,0 -3.1771,1.30208 -1.3021,1.30208 -1.3021,3.17708 0,1.875 1.2761,3.15104 1.3021,1.27604 3.2031,1.27604 1.875,0 3.1771,-1.27604 1.3021,-1.30208 1.3021,-3.15104 0,-1.875 -1.3282,-3.17708 -1.302,-1.30208 -3.151,-1.30208 z m 0,-4.21875 q 1.7188,0 3.3073,0.67708 1.5885,0.65105 2.8385,1.875 1.224,1.25 1.849,2.8125 0.651,1.5625 0.651,3.33333 0,1.74479 -0.651,3.33333 -0.625,1.5625 -1.7969,2.73438 -1.25,1.25 -2.8646,1.92708 -1.6145,0.65104 -3.3854,0.65104 -3.6718,0 -6.1718,-2.47396 -2.474,-2.49999 -2.474,-6.17187 0,-3.67187 2.5,-6.17187 2.526,-2.52604 6.1979,-2.52604 z"
         style="font-weight:bold;font-family:'DejaVu Sans';-inkscape-font-specification:'DejaVu Sans Bold'"
         id="path60949" />
    </g>
  </g>
</svg>
