<?xml version="1.0" encoding="UTF-8" standalone="no"?>
<!-- Created with Inkscape (http://www.inkscape.org/) -->

<svg
   width="128"
   height="128"
   viewBox="0 0 33.866666 33.866668"
   version="1.1"
   id="svg5"
   inkscape:export-filename="/home/muldjord/programming/occurity/icons/pinblank.png"
   inkscape:export-xdpi="96"
   inkscape:export-ydpi="96"
   inkscape:version="1.1.1 (3bf5ae0d25, 2021-09-20)"
   sodipodi:docname="pinasterisk.svg"
   xmlns:inkscape="http://www.inkscape.org/namespaces/inkscape"
   xmlns:sodipodi="http://sodipodi.sourceforge.net/DTD/sodipodi-0.dtd"
   xmlns="http://www.w3.org/2000/svg"
   xmlns:svg="http://www.w3.org/2000/svg">
  <sodipodi:namedview
     id="namedview7"
     pagecolor="#c8c8c8"
     bordercolor="#666666"
     borderopacity="1.0"
     inkscape:pageshadow="2"
     inkscape:pageopacity="0"
     inkscape:pagecheckerboard="0"
     inkscape:document-units="mm"
     showgrid="false"
     units="px"
     width="128px"
     inkscape:zoom="2.8284272"
     inkscape:cx="70.180346"
     inkscape:cy="66.644812"
     inkscape:window-width="1852"
     inkscape:window-height="1016"
     inkscape:window-x="0"
     inkscape:window-y="0"
     inkscape:window-maximized="1"
     inkscape:current-layer="layer5" />
  <defs
     id="defs2">
    <rect
       x="-284.26398"
       y="-296.34421"
       width="261.43677"
       height="217.64828"
       id="rect13354" />
    <rect
       x="-70.130234"
       y="-22.389809"
       width="70.289474"
       height="66.728035"
       id="rect5885" />
  </defs>
  <g
     inkscape:groupmode="layer"
     id="layer3"
     inkscape:label="Background"
     style="display:inline"
     sodipodi:insensitive="true">
    <rect
       style="display:inline;fill:#ffffff;stroke-width:0.983923;stroke-linecap:round;stroke-linejoin:round;paint-order:markers stroke fill"
       id="rect937"
       width="30"
       height="30"
       x="1.9333333"
       y="1.9333333"
       ry="4.1942973" />
  </g>
  <g
     inkscape:label="Blank"
     inkscape:groupmode="layer"
     id="layer1"
     style="display:inline">
    <circle
       style="fill:#000000;stroke-width:0.715614;stroke-linecap:round;stroke-linejoin:round;paint-order:markers stroke fill"
       id="path1049"
       cx="16.933332"
       cy="16.933332"
       r="2.3092694" />
  </g>
  <g
     inkscape:groupmode="layer"
     id="layer2"
     inkscape:label="Filled"
     style="display:none">
    <g
       aria-label="*"
       transform="matrix(0.62990126,0,0,0.62990126,181.81858,181.79522)"
       id="text13352"
       style="font-size:96px;line-height:1.25;white-space:pre;shape-inside:url(#rect13354)"
       inkscape:export-filename="/home/muldjord/programming/occurity/icons/pinfilled.png"
       inkscape:export-xdpi="96"
       inkscape:export-ydpi="96">
      <path
         d="m -249.5293,-270.14062 q 2.01563,0 3.75,1.59375 1.73438,1.54687 1.73438,3.60937 0,2.71875 -1.78125,4.26563 -1.73438,1.5 -4.3125,1.5 -2.01563,0 -3.9375,-0.46875 -1.875,-0.46875 -2.67188,-0.46875 -0.0469,0 -0.14062,0.0469 -0.0469,0 -0.0937,0 -1.125,0.32813 -1.125,0.98438 0,0.375 0.42187,1.03125 0.28125,0.375 1.82813,0.9375 1.59375,0.5625 3.42187,1.5 1.875,0.89062 2.95313,2.34375 0.9375,1.26562 0.9375,2.85937 0,2.4375 -1.5,4.07813 -1.45313,1.59375 -3.89063,1.59375 -1.125,0 -2.29687,-0.46875 -1.125,-0.51563 -2.01563,-1.73438 -0.98437,-1.40625 -1.40625,-3.32812 -0.42187,-1.96875 -0.60937,-3.5625 -0.14063,-1.64063 -0.375,-2.01563 -0.46875,-0.75 -1.03125,-0.75 -0.5625,0 -1.07813,0.75 -0.23437,0.32813 -0.28125,2.01563 -0.0469,1.6875 -0.375,3.75 -0.32812,2.01562 -1.40625,3.51562 -0.84375,1.17188 -2.01562,1.59375 -1.125,0.42188 -2.25,0.42188 -2.10938,0 -3.28125,-0.84375 -0.75,-0.51563 -1.5,-1.78125 -0.70313,-1.26563 -0.70313,-2.8125 0,-1.6875 1.03125,-3.09375 1.03125,-1.40625 2.76563,-2.34375 1.78125,-0.9375 3.28125,-1.54688 1.5,-0.65625 1.73437,-1.07812 0.42188,-0.5625 0.42188,-1.03125 0,-0.65625 -1.17188,-0.98438 -0.60937,0 -2.71875,0.65625 -2.10937,0.60938 -4.35937,0.60938 -2.57813,0 -4.26563,-1.5 -1.64062,-1.5 -1.64062,-4.21875 0,-0.89063 0.1875,-1.40625 0.32812,-1.07813 1.6875,-2.39063 1.40625,-1.35937 3.46875,-1.35937 0.84375,0 1.6875,0.28125 1.6875,0.51562 3.14062,1.92187 1.5,1.35938 2.57813,2.57813 1.07812,1.21875 1.5,1.35937 0.23437,0.0937 0.60937,0.0937 1.07813,0 1.07813,-1.35937 0,-0.42188 -0.98438,-1.78125 -0.9375,-1.40625 -1.92187,-3.23438 -0.9375,-1.875 -0.9375,-3.70312 0,-1.82813 0.98437,-3 1.03125,-1.21875 2.34375,-1.78125 1.3125,-0.60938 2.15625,-0.60938 0.89063,0 2.15625,0.5625 1.26563,0.5625 2.25,1.78125 0.98438,1.21875 0.98438,3.14063 0,1.73437 -0.84375,3.5625 -0.84375,1.78125 -1.6875,3.1875 -0.84375,1.40625 -0.84375,1.875 0,1.40625 0.98437,1.40625 0.32813,0 0.75,-0.14063 0.375,-0.14062 1.40625,-1.45312 1.03125,-1.35938 2.48438,-2.8125 1.5,-1.5 3.23437,-2.0625 0.79688,-0.28125 1.5,-0.28125 z"
         style="font-family:'Abyssinica SIL';-inkscape-font-specification:'Abyssinica SIL'"
         id="path18090" />
    </g>
  </g>
  <g
     inkscape:groupmode="layer"
     id="layer4"
     inkscape:label="Correct"
     style="display:none">
    <path
       style="fill:#34bc2f;fill-opacity:1;stroke:#2ea72a;stroke-width:1;stroke-linecap:butt;stroke-linejoin:round;stroke-miterlimit:4;stroke-dasharray:none;stroke-opacity:1"
       d="m 9.4546208,16.982125 -4.6096159,2.665831 c 0,0 3.5935296,2.691557 5.2288911,4.316651 1.635361,1.625093 4.524019,5.410315 4.524019,5.410315 0,0 4.324882,-8.707809 7.669238,-13.31772 3.344356,-4.609911 6.754496,-7.5702549 6.754496,-7.5702549 L 24.176892,4.4917639 c 0,0 -3.490909,5.5763001 -5.646735,9.9693221 -2.155826,4.393022 -4.339306,10.217618 -4.339306,10.217618 0,0 -1.440802,-2.853407 -2.267628,-4.10307 -0.826826,-1.249663 -2.4686022,-3.593509 -2.4686022,-3.593509 z"
       id="path211"
       sodipodi:nodetypes="cczczcczczc" />
  </g>
  <g
     inkscape:groupmode="layer"
     id="layer5"
     inkscape:label="Incorrect"
     style="display:none">
    <path
       id="rect5363"
       style="fill:#d2574c;fill-opacity:1;stroke:#c43131;stroke-width:0.938813;stroke-linejoin:round;stroke-miterlimit:4;stroke-dasharray:none;stroke-opacity:1"
       d="M 24.302031,5.2144271 16.933676,12.582782 9.5649781,5.2140842 5.2140842,9.564978 l 7.3686978,7.368698 -7.3683555,7.368356 4.350551,4.35055 7.3683555,-7.368355 7.368356,7.368355 4.350893,-4.350894 -7.368355,-7.368355 7.368355,-7.3683549 z" />
  </g>
</svg>
