<?xml version="1.0" encoding="UTF-8" standalone="no"?>
<!-- Created with Inkscape (http://www.inkscape.org/) -->

<svg
   width="500"
   height="500"
   viewBox="0 0 500 500"
   version="1.1"
   id="svg8"
   inkscape:version="1.1.1 (3bf5ae0d25, 2021-09-20)"
   sodipodi:docname="S.svg"
   xmlns:inkscape="http://www.inkscape.org/namespaces/inkscape"
   xmlns:sodipodi="http://sodipodi.sourceforge.net/DTD/sodipodi-0.dtd"
   xmlns="http://www.w3.org/2000/svg"
   xmlns:svg="http://www.w3.org/2000/svg"
   xmlns:rdf="http://www.w3.org/1999/02/22-rdf-syntax-ns#"
   xmlns:cc="http://creativecommons.org/ns#"
   xmlns:dc="http://purl.org/dc/elements/1.1/">
  <defs
     id="defs2" />
  <sodipodi:namedview
     id="base"
     pagecolor="#ffffff"
     bordercolor="#666666"
     borderopacity="1.0"
     inkscape:pageopacity="0.0"
     inkscape:pageshadow="2"
     inkscape:zoom="0.70710678"
     inkscape:cx="252.43712"
     inkscape:cy="327.39044"
     inkscape:document-units="px"
     inkscape:current-layer="optotype"
     showgrid="true"
     units="px"
     inkscape:window-width="1852"
     inkscape:window-height="1136"
     inkscape:window-x="68"
     inkscape:window-y="27"
     inkscape:window-maximized="1"
     inkscape:lockguides="true"
     showguides="false"
     inkscape:guide-bbox="true"
     inkscape:pagecheckerboard="0"
     width="500px"
     scale-x="1"
     inkscape:snap-global="false">
    <inkscape:grid
       type="xygrid"
       id="grid834"
       spacingx="50"
       spacingy="50"
       empspacing="2"
       units="px" />
  </sodipodi:namedview>
  <metadata
     id="metadata5">
    <rdf:RDF>
      <cc:Work
         rdf:about="">
        <dc:format>image/svg+xml</dc:format>
        <dc:type
           rdf:resource="http://purl.org/dc/dcmitype/StillImage" />
      </cc:Work>
    </rdf:RDF>
  </metadata>
  <g
     inkscape:label="Optotype"
     inkscape:groupmode="layer"
     id="optotype"
     transform="translate(0,0)"
     style="opacity:1">
    <path
       style="fill:#000000;fill-opacity:1;stroke:none;stroke-width:13.4291;stroke-linecap:round;stroke-linejoin:round;stroke-miterlimit:4;stroke-dasharray:none;stroke-opacity:1;paint-order:markers stroke fill"
       d="M 150.00283,0 C 66.905148,0 0,66.90464 0,150.00234 c 0,38.5402 14.510093,73.49605 38.234118,100.01082 27.427943,30.65448 67.210712,49.99199 111.768712,49.99199 h 49.99199 150.00282 c 27.69908,0 49.99201,22.29244 49.99201,49.99198 0,27.69909 -22.29293,49.99199 -49.99201,49.99199 H 150.00283 c -27.69957,0 -50.01834,-22.2929 -50.01834,-49.99199 H 0 C 0,433.09484 66.905148,500 150.00283,500 h 199.99481 c 83.09719,0 149.97599,-66.90516 149.97599,-150.00287 0,-83.09766 -66.8788,-150.0023 -149.97599,-150.0023 H 299.97932 150.00283 c -27.69957,0 -50.01834,-22.29295 -50.01834,-49.99249 0,-27.69909 22.31877,-49.99204 50.01834,-49.99204 h 199.99481 c 27.69908,0 49.99201,22.29295 49.99201,49.99204 h 99.98398 C 499.97363,66.90464 433.09534,0 349.99764,0 Z"
       id="rect6053" />
  </g>
</svg>
