<?xml version="1.0" encoding="UTF-8" standalone="no"?>
<!-- Created with Inkscape (http://www.inkscape.org/) -->

<svg
   width="500"
   height="500"
   viewBox="0 0 500 500"
   version="1.1"
   id="svg8"
   inkscape:version="1.1.1 (3bf5ae0d25, 2021-09-20)"
   sodipodi:docname="0.svg"
   xmlns:inkscape="http://www.inkscape.org/namespaces/inkscape"
   xmlns:sodipodi="http://sodipodi.sourceforge.net/DTD/sodipodi-0.dtd"
   xmlns="http://www.w3.org/2000/svg"
   xmlns:svg="http://www.w3.org/2000/svg"
   xmlns:rdf="http://www.w3.org/1999/02/22-rdf-syntax-ns#"
   xmlns:cc="http://creativecommons.org/ns#"
   xmlns:dc="http://purl.org/dc/elements/1.1/">
  <defs
     id="defs2" />
  <sodipodi:namedview
     id="base"
     pagecolor="#ffffff"
     bordercolor="#666666"
     borderopacity="1.0"
     inkscape:pageopacity="0.0"
     inkscape:pageshadow="2"
     inkscape:zoom="0.70710678"
     inkscape:cx="342.94679"
     inkscape:cy="355.67471"
     inkscape:document-units="px"
     inkscape:current-layer="optotype"
     showgrid="true"
     units="px"
     inkscape:window-width="1852"
     inkscape:window-height="1136"
     inkscape:window-x="68"
     inkscape:window-y="27"
     inkscape:window-maximized="1"
     inkscape:lockguides="true"
     showguides="false"
     inkscape:guide-bbox="true"
     inkscape:pagecheckerboard="0"
     width="500px"
     scale-x="1"
     inkscape:snap-global="false">
    <inkscape:grid
       type="xygrid"
       id="grid834"
       spacingx="50"
       spacingy="50"
       empspacing="2"
       units="px" />
  </sodipodi:namedview>
  <metadata
     id="metadata5">
    <rdf:RDF>
      <cc:Work
         rdf:about="">
        <dc:format>image/svg+xml</dc:format>
        <dc:type
           rdf:resource="http://purl.org/dc/dcmitype/StillImage" />
      </cc:Work>
    </rdf:RDF>
  </metadata>
  <g
     inkscape:label="Optotype"
     inkscape:groupmode="layer"
     id="optotype"
     transform="translate(0,0)"
     style="opacity:1">
    <path
       id="path3982"
       style="fill:#000000;fill-opacity:1;stroke:none;stroke-width:1px;stroke-linecap:butt;stroke-linejoin:miter;stroke-opacity:1"
       d="M 150 0 C 64.992706 0 4.5097749e-16 64.441559 0 150 L 0 350 C 0 434.11993 65.291443 500 150 500 L 350 500 C 435.35327 500 500 435.42163 500 350 L 500 150 C 500 66.247589 434.1925 0 350 0 L 150 0 z M 150 100 L 350 100 C 373.57023 100 400 126.42977 400 150 L 400 350 C 400 373.57023 373.57023 400 350 400 L 150 400 C 126.42977 400 100 373.57023 100 350 L 100 150 C 100 124.5984 124.57538 100 150 100 z " />
  </g>
</svg>
