<?xml version="1.0" encoding="UTF-8" standalone="no"?>
<!-- Created with Inkscape (http://www.inkscape.org/) -->

<svg
   width="128"
   height="128"
   viewBox="0 0 33.866666 33.866668"
   version="1.1"
   id="svg5"
   inkscape:version="1.1.2 (0a00cf5339, 2022-02-04)"
   sodipodi:docname="touch-preferences.svg"
   inkscape:export-filename="/home/muldjord/programming/occurity/icons/touch-preferences.png"
   inkscape:export-xdpi="96"
   inkscape:export-ydpi="96"
   xmlns:inkscape="http://www.inkscape.org/namespaces/inkscape"
   xmlns:sodipodi="http://sodipodi.sourceforge.net/DTD/sodipodi-0.dtd"
   xmlns="http://www.w3.org/2000/svg"
   xmlns:svg="http://www.w3.org/2000/svg">
  <sodipodi:namedview
     id="namedview7"
     pagecolor="#ffffff"
     bordercolor="#666666"
     borderopacity="1.0"
     inkscape:pageshadow="2"
     inkscape:pageopacity="0.0"
     inkscape:pagecheckerboard="0"
     inkscape:document-units="mm"
     showgrid="true"
     units="px"
     width="128px"
     inkscape:zoom="1"
     inkscape:cx="-228.5"
     inkscape:cy="58.5"
     inkscape:window-width="2486"
     inkscape:window-height="1376"
     inkscape:window-x="74"
     inkscape:window-y="27"
     inkscape:window-maximized="1"
     inkscape:current-layer="layer1"
     inkscape:snap-bbox="true"
     inkscape:snap-global="true"
     inkscape:snap-object-midpoints="true"
     inkscape:snap-grids="false"
     inkscape:snap-page="true"
     showguides="true"
     inkscape:guide-bbox="true"
     inkscape:snap-bbox-edge-midpoints="true"
     inkscape:bbox-nodes="true"
     inkscape:bbox-paths="true"
     inkscape:snap-bbox-midpoints="true">
    <inkscape:grid
       type="xygrid"
       id="grid7557" />
  </sodipodi:namedview>
  <defs
     id="defs2" />
  <g
     inkscape:label="Layer 1"
     inkscape:groupmode="layer"
     id="layer1">
    <rect
       style="fill:#b2b2b2;fill-opacity:1;stroke:#000000;stroke-width:2;stroke-linecap:round;stroke-linejoin:round;stroke-miterlimit:4;stroke-dasharray:none;stop-color:#000000"
       id="rect846"
       width="29.934944"
       height="29.934946"
       x="1.9658612"
       y="1.9658602"
       ry="7.1336036" />
    <path
       id="path1272"
       style="fill:#ffffff;fill-opacity:0.97831285;stroke:#010101;stroke-width:3.77952761;stroke-linecap:round;stop-color:#000000;stroke-miterlimit:4;stroke-dasharray:none"
       d="M 64 19.414062 C 61 19.414062 59 20 59 20 L 55.158203 35.365234 A 29.999297 29.999297 0 0 0 50.054688 37.53125 L 36.421875 29.351562 C 36.421875 29.351562 34.592023 30.351336 32.470703 32.472656 C 30.349383 34.593977 29.349609 36.423828 29.349609 36.423828 L 37.501953 50.009766 A 29.999297 29.999297 0 0 0 35.410156 55.148438 L 19.998047 59.001953 C 19.998047 59.001953 19.412109 61.001953 19.412109 64.001953 C 19.412109 67.001953 19.998047 69.001953 19.998047 69.001953 L 35.365234 72.84375 A 29.999297 29.999297 0 0 0 37.53125 77.945312 L 29.349609 91.580078 C 29.349609 91.580078 30.349383 93.407977 32.470703 95.529297 C 34.592023 97.650617 36.421875 98.650391 36.421875 98.650391 L 50.009766 90.498047 A 29.999297 29.999297 0 0 0 55.146484 92.589844 L 59 108.00391 C 59 108.00391 61 108.58984 64 108.58984 C 67 108.58984 69 108.00391 69 108.00391 L 72.84375 92.626953 A 29.999297 29.999297 0 0 0 77.943359 90.470703 L 91.578125 98.650391 C 91.578125 98.650391 93.406023 97.650617 95.527344 95.529297 C 97.648664 93.407977 98.648438 91.580078 98.648438 91.580078 L 90.482422 77.96875 A 29.999297 29.999297 0 0 0 92.667969 72.835938 L 108.00195 69.001953 C 108.00195 69.001953 108.58789 67.001953 108.58789 64.001953 C 108.58789 61.001953 108.00195 59.001953 108.00195 59.001953 L 92.667969 55.167969 A 29.999297 29.999297 0 0 0 90.484375 50.03125 L 98.648438 36.423828 C 98.648437 36.423828 97.650617 34.593977 95.529297 32.472656 C 93.407977 30.351336 91.578125 29.351563 91.578125 29.351562 L 78.005859 37.496094 A 29.999297 29.999297 0 0 0 72.849609 35.402344 L 69 20 C 69 20 67 19.414063 64 19.414062 z M 64 51.208984 A 12.791841 12.791841 0 0 1 76.791016 64 A 12.791841 12.791841 0 0 1 64 76.791016 A 12.791841 12.791841 0 0 1 51.208984 64 A 12.791841 12.791841 0 0 1 64 51.208984 z "
       transform="scale(0.26458333)" />
  </g>
</svg>
